<svg xmlns="http://www.w3.org/2000/svg" width="24" height="24" viewBox="0 0 24 24">
  <metadata><?xpacket begin="﻿" id="W5M0MpCehiHzreSzNTczkc9d"?>
<x:xmpmeta xmlns:x="adobe:ns:meta/" x:xmptk="Adobe XMP Core 5.6-c138 79.159824, 2016/09/14-01:09:01        ">
   <rdf:RDF xmlns:rdf="http://www.w3.org/1999/02/22-rdf-syntax-ns#">
      <rdf:Description rdf:about=""/>
   </rdf:RDF>
</x:xmpmeta>
                                                                                                    
                                                                                                    
                                                                                                    
                                                                                                    
                                                                                                    
                                                                                                    
                                                                                                    
                                                                                                    
                                                                                                    
                                                                                                    
                                                                                                    
                                                                                                    
                                                                                                    
                                                                                                    
                                                                                                    
                                                                                                    
                                                                                                    
                                                                                                    
                                                                                                    
                                                                                                    
                           
<?xpacket end="w"?></metadata>
<defs>
    <style>
      .cls-1 {
        fill: #898989;
        fill-rule: evenodd;
      }
    </style>
  </defs>
  <path id="phone" class="cls-1" d="M224.8,199.4a20.763,20.763,0,0,0,8.8,8.8l2.933-2.933a1.062,1.062,0,0,1,1.334-.267,13.949,13.949,0,0,0,4.8.8A1.259,1.259,0,0,1,244,207.133v4.534A1.259,1.259,0,0,1,242.667,213,22.647,22.647,0,0,1,220,190.333,1.259,1.259,0,0,1,221.333,189H226a1.259,1.259,0,0,1,1.333,1.333,15.109,15.109,0,0,0,.8,4.8,1.643,1.643,0,0,1-.266,1.334Z" transform="translate(-220 -189)"/>
</svg>
